# File created by Blade
# Date/Time:  Wed Apr 08 17:12:12 2015
# Frame Rate: 120.000 fps
#------------------------------------------------------
:FULLY-SPECIFIED
:DEGREES
932
root 2.889703 39.704915 4.724565 63.674703 -42.323895 -101.029403
Spine 81.726700 -28.476773 3.305645
Head -15.419793 11.988229 19.364866
LeftShoulder -5.959025 12.567934 26.777642
LeftArm 15.646331 23.595249 -75.550089
LeftForeArm 26.484416 -0.000000 36.866074
LeftHand -11.447754 -0.000000 -13.369384
LeftHandThumb1 -26.253704 0.000000 33.147579
RightShoulder -25.840606 -46.378123 9.300586
RightArm 45.938452 1.489605 84.390058
RightForeArm 21.157703 -0.000000 21.192930
RightHand 8.426026 -0.000000 -8.532382
RightHandThumb1 -24.326973 -0.000000 -32.862282
LeftUpLeg 37.016994 -6.523110 50.559158
LeftLeg 2.944439 -0.000000 -0.000000
LeftFoot -5.590269 4.082296 -14.140298
LeftToeBase 1.944000 -0.000000 -0.000000
RightUpLeg 33.812991 2.264868 -52.580076
RightLeg 118.711833 -0.000000 -0.000000
RightFoot 8.381891 10.093599 1.412917
RightToeBase -3.007701 -0.000000 0.000000
933
root 2.881146 39.707215 4.710506 63.682973 -42.210649 -101.089411
Spine 81.902797 -28.520854 3.296155
Head -15.500387 11.902116 19.484624
LeftShoulder -5.941007 12.608105 26.831750
LeftArm 15.603241 23.771176 -75.448215
LeftForeArm 26.549542 -0.000000 36.633730
LeftHand -11.500821 -0.000000 -13.416791
LeftHandThumb1 -26.253704 0.000000 33.147579
RightShoulder -25.658714 -46.328627 9.290085
RightArm 46.111850 1.684046 84.337916
RightForeArm 21.305362 -0.000000 20.890181
RightHand 8.359356 -0.000000 -7.358030
RightHandThumb1 -24.326973 -0.000000 -32.862282
LeftUpLeg 36.985553 -6.695643 50.596326
LeftLeg 3.077083 -0.000000 -0.000000
LeftFoot -5.721710 4.217274 -14.109972
LeftToeBase 1.949064 -0.000000 -0.000000
RightUpLeg 34.140260 2.587362 -52.450168
RightLeg 118.928393 -0.000000 -0.000000
RightFoot 8.457740 9.988476 1.268127
RightToeBase -3.090774 -0.000000 0.000000
934
root 2.863634 39.711333 4.694320 63.510112 -42.101889 -100.978879
Spine 82.126658 -28.656706 3.193770
Head -15.575392 11.784542 19.641443
LeftShoulder -5.903913 12.620478 26.891485
LeftArm 15.473225 23.899712 -75.377508
LeftForeArm 26.778332 0.000000 36.418344
LeftHand -11.406006 -0.000000 -13.407645
LeftHandThumb1 -26.253704 0.000000 33.147579
RightShoulder -25.502369 -46.265096 9.302846
RightArm 46.356342 2.115938 84.650864
RightForeArm 21.036193 -0.000000 20.373728
RightHand 8.455787 0.000000 -5.926838
RightHandThumb1 -24.326973 -0.000000 -32.862282
LeftUpLeg 36.887430 -6.947445 50.625226
LeftLeg 3.238331 -0.000000 -0.000000
LeftFoot -5.816414 4.278973 -14.085641
LeftToeBase 1.927363 -0.000000 -0.000000
RightUpLeg 34.662384 2.909861 -52.393917
RightLeg 119.073979 -0.000000 -0.000000
RightFoot 8.583912 9.910184 1.161027
RightToeBase -3.162325 -0.000000 0.000000
935
root 2.855825 39.712879 4.682653 63.556341 -42.009031 -101.057766
Spine 82.270618 -28.679083 3.197222
Head -15.669365 11.687102 19.775871
LeftShoulder -5.866823 12.628238 26.972488
LeftArm 15.378875 24.016387 -75.352604
LeftForeArm 26.914735 -0.000000 36.206473
LeftHand -11.375069 -0.000000 -13.478930
LeftHandThumb1 -26.253704 0.000000 33.147579
RightShoulder -25.295301 -46.165397 9.271240
RightArm 46.501532 2.344044 84.665282
RightForeArm 21.143952 -0.000000 20.054708
RightHand 8.276093 -0.000000 -4.871017
RightHandThumb1 -24.326973 -0.000000 -32.862282
LeftUpLeg 36.838337 -7.042710 50.681398
LeftLeg 3.394700 -0.000000 -0.000000
LeftFoot -5.918797 4.371813 -14.029621
LeftToeBase 1.925452 -0.000000 -0.000000
RightUpLeg 34.951451 3.198815 -52.288107
RightLeg 119.285521 -0.000000 -0.000000
RightFoot 8.832717 9.800180 1.024938
RightToeBase -3.290087 -0.000000 0.000000
